REM DIRINDEX 1\6,1\2\7,1\2\8,1\2\9,1\3\10,1\3\11,1\4\12,1\4\13,1\4\14,1\5\15,1\5\16,1\5\17
REM DIRNAME cjc040,folder01,folder02,folder03,folder04,folder05,folder06,folder07,folder08,folder09,folder10,folder11,folder12,folder13,folder14,folder15,folder16
TITLE ""
FILE "P2Q_t2_0929-0946.mp3" MP3
  TRACK 01 AUDIO
    TITLE "7:cjc040_6620"
    INDEX 01 00:00:00
  TRACK 02 AUDIO
    TITLE "0:"
    INDEX 01 00:01:07
  TRACK 03 AUDIO
    TITLE "8:cjc040_6621"
    INDEX 01 00:01:64
  TRACK 04 AUDIO
    TITLE "0:"
    INDEX 01 00:05:26
  TRACK 05 AUDIO
    TITLE "9:cjc040_6622"
    INDEX 01 00:06:04
  TRACK 06 AUDIO
    TITLE "0:"
    INDEX 01 00:07:23
  TRACK 07 AUDIO
    TITLE "7:cjc040_6623"
    INDEX 01 00:09:06
  TRACK 08 AUDIO
    TITLE "0:"
    INDEX 01 00:10:08
  TRACK 09 AUDIO
    TITLE "8:cjc040_6624"
    INDEX 01 00:10:61
  TRACK 10 AUDIO
    TITLE "0:"
    INDEX 01 00:11:64
  TRACK 11 AUDIO
    TITLE "9:cjc040_6625"
    INDEX 01 00:12:38
  TRACK 12 AUDIO
    TITLE "0:"
    INDEX 01 00:13:43
  TRACK 13 AUDIO
    TITLE "7:cjc040_6626"
    INDEX 01 00:15:27
  TRACK 14 AUDIO
    TITLE "0:"
    INDEX 01 00:16:73
  TRACK 15 AUDIO
    TITLE "8:cjc040_6627"
    INDEX 01 00:17:51
  TRACK 16 AUDIO
    TITLE "0:"
    INDEX 01 00:19:56
  TRACK 17 AUDIO
    TITLE "9:cjc040_6628"
    INDEX 01 00:20:34
  TRACK 18 AUDIO
    TITLE "0:"
    INDEX 01 00:22:11
  TRACK 19 AUDIO
    TITLE "7:cjc040_6629"
    INDEX 01 00:23:69
  TRACK 20 AUDIO
    TITLE "0:"
    INDEX 01 00:25:05
  TRACK 21 AUDIO
    TITLE "8:cjc040_6630"
    INDEX 01 00:25:58
  TRACK 22 AUDIO
    TITLE "0:"
    INDEX 01 00:26:71
  TRACK 23 AUDIO
    TITLE "9:cjc040_6631"
    INDEX 01 00:27:49
  TRACK 24 AUDIO
    TITLE "0:"
    INDEX 01 00:28:62
  TRACK 25 AUDIO
    TITLE "7:cjc040_6632"
    INDEX 01 00:30:46
  TRACK 26 AUDIO
    TITLE "0:"
    INDEX 01 00:31:67
  TRACK 27 AUDIO
    TITLE "8:cjc040_6633"
    INDEX 01 00:32:48
  TRACK 28 AUDIO
    TITLE "0:"
    INDEX 01 00:33:46
  TRACK 29 AUDIO
    TITLE "9:cjc040_6634"
    INDEX 01 00:34:26
  TRACK 30 AUDIO
    TITLE "0:"
    INDEX 01 00:35:55
  TRACK 31 AUDIO
    TITLE "7:cjc040_6635"
    INDEX 01 00:37:34
  TRACK 32 AUDIO
    TITLE "0:"
    INDEX 01 00:38:55
  TRACK 33 AUDIO
    TITLE "8:cjc040_6636"
    INDEX 01 00:39:31
  TRACK 34 AUDIO
    TITLE "0:"
    INDEX 01 00:43:13
  TRACK 35 AUDIO
    TITLE "9:cjc040_6637"
    INDEX 01 00:43:68
  TRACK 36 AUDIO
    TITLE "0:"
    INDEX 01 00:45:16
  TRACK 37 AUDIO
    TITLE "7:cjc040_6638"
    INDEX 01 00:46:72
  TRACK 38 AUDIO
    TITLE "0:"
    INDEX 01 00:48:16
  TRACK 39 AUDIO
    TITLE "8:cjc040_6639"
    INDEX 01 00:48:73
  TRACK 40 AUDIO
    TITLE "0:"
    INDEX 01 00:50:17
  TRACK 41 AUDIO
    TITLE "9:cjc040_6640"
    INDEX 01 00:50:70
  TRACK 42 AUDIO
    TITLE "0:"
    INDEX 01 00:52:16
  TRACK 43 AUDIO
    TITLE "7:cjc040_6641"
    INDEX 01 00:53:74
  TRACK 44 AUDIO
    TITLE "0:"
    INDEX 01 00:55:16
  TRACK 45 AUDIO
    TITLE "8:cjc040_6642"
    INDEX 01 00:55:71
  TRACK 46 AUDIO
    TITLE "0:"
    INDEX 01 00:59:16
  TRACK 47 AUDIO
    TITLE "9:cjc040_6643"
    INDEX 01 00:59:69
  TRACK 48 AUDIO
    TITLE "0:"
    INDEX 01 01:01:07
  TRACK 49 AUDIO
    TITLE "7:cjc040_6644"
    INDEX 01 01:02:65
  TRACK 50 AUDIO
    TITLE "0:"
    INDEX 01 01:04:23
  TRACK 51 AUDIO
    TITLE "8:cjc040_6645"
    INDEX 01 01:05:01
  TRACK 52 AUDIO
    TITLE "0:"
    INDEX 01 01:06:38
  TRACK 53 AUDIO
    TITLE "9:cjc040_6646"
    INDEX 01 01:07:14
  TRACK 54 AUDIO
    TITLE "0:"
    INDEX 01 01:08:46
  TRACK 55 AUDIO
    TITLE "7:cjc040_6647"
    INDEX 01 01:10:33
  TRACK 56 AUDIO
    TITLE "0:"
    INDEX 01 01:11:37
  TRACK 57 AUDIO
    TITLE "8:cjc040_6648"
    INDEX 01 01:12:26
  TRACK 58 AUDIO
    TITLE "0:"
    INDEX 01 01:14:17
  TRACK 59 AUDIO
    TITLE "9:cjc040_6649"
    INDEX 01 01:14:65
  TRACK 60 AUDIO
    TITLE "0:"
    INDEX 01 01:16:01
  TRACK 61 AUDIO
    TITLE "7:cjc040_6650"
    INDEX 01 01:17:61
  TRACK 62 AUDIO
    TITLE "0:"
    INDEX 01 01:18:74
  TRACK 63 AUDIO
    TITLE "8:cjc040_6651"
    INDEX 01 01:19:56
  TRACK 64 AUDIO
    TITLE "0:"
    INDEX 01 01:22:31
  TRACK 65 AUDIO
    TITLE "9:cjc040_6652"
    INDEX 01 01:23:11
  TRACK 66 AUDIO
    TITLE "0:"
    INDEX 01 01:24:26
  TRACK 67 AUDIO
    TITLE "7:cjc040_6653"
    INDEX 01 01:26:05
  TRACK 68 AUDIO
    TITLE "0:"
    INDEX 01 01:27:16
  TRACK 69 AUDIO
    TITLE "8:cjc040_6654"
    INDEX 01 01:27:69
  TRACK 70 AUDIO
    TITLE "0:"
    INDEX 01 01:30:46
  TRACK 71 AUDIO
    TITLE "9:cjc040_6655"
    INDEX 01 01:31:18
  TRACK 72 AUDIO
    TITLE "0:"
    INDEX 01 01:32:31
  TRACK 73 AUDIO
    TITLE "7:cjc040_6656"
    INDEX 01 01:34:14
  TRACK 74 AUDIO
    TITLE "0:"
    INDEX 01 01:35:35
  TRACK 75 AUDIO
    TITLE "8:cjc040_6657"
    INDEX 01 01:36:19
  TRACK 76 AUDIO
    TITLE "0:"
    INDEX 01 01:40:05
  TRACK 77 AUDIO
    TITLE "9:cjc040_6658"
    INDEX 01 01:40:52
  TRACK 78 AUDIO
    TITLE "0:"
    INDEX 01 01:41:73
  TRACK 79 AUDIO
    TITLE "7:cjc040_6659"
    INDEX 01 01:43:58
  TRACK 80 AUDIO
    TITLE "0:"
    INDEX 01 01:44:62
  TRACK 81 AUDIO
    TITLE "8:cjc040_6660"
    INDEX 01 01:45:38
  TRACK 82 AUDIO
    TITLE "0:"
    INDEX 01 01:47:35
  TRACK 83 AUDIO
    TITLE "9:cjc040_6661"
    INDEX 01 01:48:14
  TRACK 84 AUDIO
    TITLE "0:"
    INDEX 01 01:49:22
  TRACK 85 AUDIO
    TITLE "7:cjc040_6662"
    INDEX 01 01:51:13
  TRACK 86 AUDIO
    TITLE "0:"
    INDEX 01 01:52:40
  TRACK 87 AUDIO
    TITLE "8:cjc040_6663"
    INDEX 01 01:53:20
  TRACK 88 AUDIO
    TITLE "0:"
    INDEX 01 01:56:36
  TRACK 89 AUDIO
    TITLE "9:cjc040_6664"
    INDEX 01 01:57:11
  TRACK 90 AUDIO
    TITLE "0:"
    INDEX 01 01:58:40
  TRACK 91 AUDIO
    TITLE "7:cjc040_6665"
    INDEX 01 02:00:25
  TRACK 92 AUDIO
    TITLE "0:"
    INDEX 01 02:01:58
  TRACK 93 AUDIO
    TITLE "8:cjc040_6666"
    INDEX 01 02:02:38
  TRACK 94 AUDIO
    TITLE "0:"
    INDEX 01 02:04:37
  TRACK 95 AUDIO
    TITLE "9:cjc040_6667"
    INDEX 01 02:05:15
  TRACK 96 AUDIO
    TITLE "0:"
    INDEX 01 02:06:50
  TRACK 97 AUDIO
    TITLE "7:cjc040_6668"
    INDEX 01 02:08:33
  TRACK 98 AUDIO
    TITLE "0:"
    INDEX 01 02:09:50
  TRACK 99 AUDIO
    TITLE "8:cjc040_6669"
    INDEX 01 02:10:30
  TRACK 100 AUDIO
    TITLE "0:"
    INDEX 01 02:12:40
  TRACK 101 AUDIO
    TITLE "9:cjc040_6670"
    INDEX 01 02:13:18
  TRACK 102 AUDIO
    TITLE "0:"
    INDEX 01 02:14:35
  TRACK 103 AUDIO
    TITLE "7:cjc040_6671"
    INDEX 01 02:16:21
  TRACK 104 AUDIO
    TITLE "0:"
    INDEX 01 02:17:42
  TRACK 105 AUDIO
    TITLE "8:cjc040_6672"
    INDEX 01 02:18:23
  TRACK 106 AUDIO
    TITLE "0:"
    INDEX 01 02:20:40
  TRACK 107 AUDIO
    TITLE "9:cjc040_6673"
    INDEX 01 02:21:18
  TRACK 108 AUDIO
    TITLE "0:"
    INDEX 01 02:22:43
